<svg width="88" height="70" viewBox="0 0 88 70" fill="none" xmlns="http://www.w3.org/2000/svg">
<path d="M24.496 20.768C22.96 20.768 21.824 20.624 21.088 20.336C20.384 20.016 19.92 19.648 19.696 19.232C19.504 18.784 19.408 18.384 19.408 18.032C19.408 17.584 19.664 17.072 20.176 16.496C20.688 15.888 21.68 15.44 23.152 15.152C24.624 14.832 26.368 14.544 28.384 14.288C30.4 14 32.544 13.76 34.816 13.568C37.088 13.344 39.392 13.152 41.728 12.992C44.064 12.832 46.288 12.72 48.4 12.656C50.512 12.56 52.384 12.512 54.016 12.512C55.712 12.512 57.024 12.608 57.952 12.8C58.88 12.992 59.536 13.232 59.92 13.52C60.336 13.808 60.576 14.112 60.64 14.432C60.736 14.752 60.784 15.056 60.784 15.344C60.784 15.408 60.784 15.456 60.784 15.488C60.784 15.872 60.688 16.288 60.496 16.736C60.336 17.184 59.968 17.568 59.392 17.888C58.816 18.176 57.952 18.32 56.8 18.32C56.384 18.32 55.456 18.384 54.016 18.512C52.576 18.64 50.816 18.8 48.736 18.992C46.656 19.184 44.448 19.376 42.112 19.568C41.76 21.008 41.36 22.688 40.912 24.608C40.496 26.528 40.064 28.544 39.616 30.656C39.2 32.768 38.8 34.848 38.416 36.896C38.032 38.912 37.712 40.784 37.456 42.512C37.2 44.208 37.024 45.6 36.928 46.688C36.8 48.16 36.368 49.2 35.632 49.808C34.928 50.384 34.224 50.672 33.52 50.672C33.008 50.672 32.496 50.56 31.984 50.336C31.472 50.144 31.056 49.712 30.736 49.04C30.416 48.336 30.256 47.296 30.256 45.92C30.256 44.512 30.384 42.784 30.64 40.736C30.896 38.656 31.232 36.432 31.648 34.064C32.096 31.696 32.592 29.312 33.136 26.912C33.712 24.512 34.304 22.272 34.912 20.192C32.768 20.352 30.784 20.496 28.96 20.624C27.136 20.72 25.648 20.768 24.496 20.768Z" fill="#FEC123"/>
<path d="M26.0876 24.5185C26.1219 23.9971 26.0902 23.584 25.9925 23.2793C25.8362 22.7917 25.538 22.4904 25.0981 22.3753C24.6581 22.2602 24.1517 22.3046 23.5789 22.5083C22.6744 22.83 21.9788 23.332 21.4923 24.0143C20.9959 24.6661 20.6624 25.6164 20.4919 26.8652C20.2241 28.9633 20.2932 31.5356 20.6992 34.5823C21.1352 37.6182 21.7978 40.5226 22.6869 43.2956C23.9181 47.135 25.371 50.1997 27.0457 52.4895C28.7505 54.7687 30.5619 56.28 32.4798 57.0237C34.3879 57.7369 36.2916 57.7557 38.1911 57.0801C40.7839 56.1579 42.7162 54.5371 43.9878 52.2177C45.2797 49.8572 45.8051 46.8867 45.5639 43.3062C46.653 44.9217 48.002 45.9865 49.6111 46.5005C51.2105 46.984 52.8091 46.9416 54.407 46.3733C56.5778 45.6012 58.2725 44.2346 59.491 42.2736C60.73 40.2714 61.4255 37.9363 61.5776 35.2682C61.7298 32.6002 61.3564 29.8645 60.4575 27.0611C59.2459 23.2826 57.5232 20.7382 55.2893 19.428C53.0856 18.1071 50.7024 17.9024 48.1396 18.8139C46.3608 19.4466 45.0211 20.2965 44.1205 21.3636C43.2403 22.3896 42.9956 23.512 43.3864 24.7309C43.66 25.5841 44.0559 26.1901 44.574 26.549C45.1223 26.8971 45.7733 26.9372 46.527 26.6691C47.0396 26.4868 47.5729 26.2122 48.1271 25.8454C49.0732 25.3392 49.7271 25.0217 50.0889 24.893C51.1743 24.507 52.1805 24.6074 53.1076 25.1942C54.0649 25.7703 54.8513 27.0182 55.4669 28.9379C56.2974 31.528 56.4191 33.7931 55.832 35.7332C55.2449 37.6733 54.0318 38.9705 52.1927 39.6246C50.7757 40.1286 49.4142 39.9678 48.1082 39.1423C46.8227 38.2756 45.7096 36.5328 44.7691 33.914C44.524 33.2543 44.2218 32.8356 43.8626 32.6579C43.5033 32.4801 43.0071 32.5039 42.3739 32.7291C40.384 33.4368 39.6671 34.7102 40.2232 36.5492C40.9739 39.0998 41.3014 41.3257 41.2056 43.2269C41.1001 45.0975 40.672 46.5907 39.9213 47.7064C39.191 48.7808 38.2681 49.5165 37.1526 49.9132C35.2833 50.5781 33.5829 50.1984 32.0514 48.7742C30.55 47.3392 29.1838 44.702 27.9527 40.8626C27.1417 38.3334 26.5732 35.5653 26.2471 32.5581C25.9414 29.5098 25.8883 26.8299 26.0876 24.5185Z" fill="#FEC123"/>
</svg>
