<svg width="229" height="91" viewBox="0 0 229 91" fill="none" xmlns="http://www.w3.org/2000/svg">
<path d="M37.5312 29.3835H23.5V67.7273H14.6875V29.3835H0.84375V22.2273H37.5312V29.3835Z" fill="white"/>
<path d="M69.75 55.8843C69.8125 56.0405 70.0312 56.3687 70.4062 56.8687C70.8125 57.3687 71.2656 57.9155 71.7656 58.5093C72.2656 59.103 72.7344 59.6812 73.1719 60.2437C73.6406 60.7749 73.9688 61.1655 74.1562 61.4155C74.5 61.853 74.8281 62.2905 75.1406 62.728C75.4844 63.1343 75.7969 63.5718 76.0781 64.0405L76.9219 65.4468C77.1719 65.7593 77.3906 66.0249 77.5781 66.2437C77.7969 66.4624 77.9688 66.7593 78.0938 67.1343C78.1562 67.3843 78.1875 67.5562 78.1875 67.6499C78.1875 67.8687 78.1094 68.0249 77.9531 68.1187C77.7031 68.1187 77.5625 68.1499 77.5312 68.2124C77.5312 68.3062 77.4688 68.3843 77.3438 68.4468C77.2188 68.5093 77.0156 68.5405 76.7344 68.5405C76.4844 68.5718 76.2812 68.5874 76.125 68.5874C75.8438 68.5874 75.4844 68.5718 75.0469 68.5405C74.6406 68.5405 74.3125 68.5874 74.0625 68.6812C74 68.7124 73.9062 68.7593 73.7812 68.8218C73.6562 68.8843 73.5625 68.9155 73.5 68.9155C73.25 68.9155 73.0625 68.8687 72.9375 68.7749C72.8438 68.7124 72.7031 68.6655 72.5156 68.6343C72.2656 68.353 72.0469 68.0718 71.8594 67.7905C71.7031 67.478 71.5156 67.1655 71.2969 66.853C71.0781 66.6343 70.8594 66.4468 70.6406 66.2905C70.4219 66.103 70.2344 65.8999 70.0781 65.6812C69.6094 64.9937 69.125 64.3218 68.625 63.6655C68.125 63.0093 67.6094 62.3687 67.0781 61.7437C66.8281 61.3999 66.5625 61.0874 66.2812 60.8062C66 60.5249 65.7344 60.2124 65.4844 59.8687C65.2344 59.5562 65 59.228 64.7812 58.8843C64.5625 58.5093 64.3438 58.1499 64.125 57.8062C63.9375 57.5249 63.6875 57.1655 63.375 56.728C63.0625 56.2593 62.7188 55.8062 62.3438 55.3687C61.9688 54.8999 61.5938 54.4624 61.2188 54.0562C60.8438 53.6499 60.5312 53.3374 60.2812 53.1187C60.25 52.9312 60.1719 52.7905 60.0469 52.6968C59.9219 52.5718 59.7812 52.4624 59.625 52.3687C59.5625 52.2124 59.5 52.0718 59.4375 51.9468C59.3438 51.7905 59.2969 51.6343 59.2969 51.478C59.2969 51.2593 59.3438 51.0562 59.4375 50.8687C59.5 50.7437 59.5469 50.6343 59.5781 50.5405C59.5781 50.4155 59.6094 50.2905 59.6719 50.1655C59.8281 49.8218 60.0312 49.4937 60.2812 49.1812C60.5625 48.8374 60.7812 48.478 60.9375 48.103C61 48.0093 61.0312 47.9155 61.0312 47.8218C61.0312 47.6968 61.0625 47.5874 61.125 47.4937C61.1875 47.2437 61.3125 47.0405 61.5 46.8843C61.7188 46.6968 61.8906 46.4937 62.0156 46.2749C62.1719 46.0249 62.3125 45.7749 62.4375 45.5249C62.5938 45.2437 62.75 44.9468 62.9062 44.6343C63.375 43.853 63.8594 43.103 64.3594 42.3843C64.8906 41.6343 65.4219 40.8843 65.9531 40.1343C66.3594 39.5093 66.75 38.9155 67.125 38.353C67.5312 37.7593 67.9375 37.1655 68.3438 36.5718C68.5625 36.2905 68.7969 35.9624 69.0469 35.5874C69.2969 35.2124 69.5625 34.8374 69.8438 34.4624C70.1562 34.0874 70.4688 33.7437 70.7812 33.4312C71.0938 33.1187 71.4062 32.8687 71.7188 32.6812C72.1875 32.6499 72.5 32.7593 72.6562 33.0093C72.8125 33.228 73.0469 33.3374 73.3594 33.3374C73.7656 33.4312 74.0312 33.5562 74.1562 33.7124C74.2812 33.8687 74.4219 34.0249 74.5781 34.1812C75.0156 34.1812 75.3594 34.2593 75.6094 34.4155C75.8906 34.5718 76.1562 34.8062 76.4062 35.1187C76.3125 35.4624 76.1719 35.7749 75.9844 36.0562C75.7969 36.3062 75.625 36.5718 75.4688 36.853C75.2188 36.978 75.0312 37.1499 74.9062 37.3687C74.8125 37.5874 74.6562 37.7593 74.4375 37.8843C74.125 38.4155 73.7969 38.9312 73.4531 39.4312C73.1094 39.8999 72.7656 40.3687 72.4219 40.8374C72.2344 41.1187 72.0312 41.3687 71.8125 41.5874C71.625 41.8062 71.4531 42.0405 71.2969 42.2905C71.2344 42.3843 71.1719 42.4937 71.1094 42.6187C71.0781 42.7124 71.0312 42.8062 70.9688 42.8999C70.5938 43.4937 70.1875 44.0562 69.75 44.5874C69.3125 45.0874 68.9062 45.6499 68.5312 46.2749C68.4062 46.4937 68.2969 46.728 68.2031 46.978C68.1406 47.1968 68.0469 47.4155 67.9219 47.6343C67.7969 47.8218 67.6094 48.0718 67.3594 48.3843C67.1406 48.6968 66.9219 49.0405 66.7031 49.4155C66.4844 49.7593 66.2812 50.103 66.0938 50.4468C65.9375 50.7593 65.8594 51.0249 65.8594 51.2437C65.8906 51.3999 66.0781 51.7124 66.4219 52.1812C66.7969 52.6187 67.2031 53.103 67.6406 53.6343C68.1094 54.1343 68.5469 54.6187 68.9531 55.0874C69.3594 55.5249 69.625 55.7905 69.75 55.8843ZM72.8438 47.353C73.0625 47.8218 73.2969 48.228 73.5469 48.5718C73.6406 48.6968 73.75 48.8062 73.875 48.8999C74 48.9937 74.0938 49.1187 74.1562 49.2749C74.2188 49.3374 74.2812 49.478 74.3438 49.6968C74.4062 49.8843 74.4688 50.0249 74.5312 50.1187C74.625 50.3687 74.8125 50.6499 75.0938 50.9624C75.375 51.2749 75.5156 51.5562 75.5156 51.8062C75.5156 51.9624 75.4844 52.1343 75.4219 52.3218C75.3594 52.5093 75.3125 52.6812 75.2812 52.8374C75.25 53.0249 75.2344 53.228 75.2344 53.4468C75.2344 53.6343 75.1719 53.8062 75.0469 53.9624C74.8906 54.1187 74.7188 54.2124 74.5312 54.2437C74.3438 54.2749 74.1719 54.353 74.0156 54.478C73.9531 54.5405 73.8594 54.6499 73.7344 54.8062C73.6094 54.9624 73.4844 55.1343 73.3594 55.3218C73.2344 55.5093 73.1094 55.6968 72.9844 55.8843C72.8906 56.0405 72.8438 56.1655 72.8438 56.2593C72.4688 56.2905 72.2188 56.3062 72.0938 56.3062C72 56.2749 71.8906 56.2749 71.7656 56.3062C71.6094 56.1499 71.4375 56.0249 71.25 55.9312C71.0938 55.8062 70.8906 55.6968 70.6406 55.603C70.5781 55.353 70.4375 55.0718 70.2188 54.7593C70 54.4155 69.8125 54.1343 69.6562 53.9155L69.3281 53.4937C68.8594 52.8374 68.4219 52.2124 68.0156 51.6187C67.6406 50.9937 67.3594 50.3062 67.1719 49.5562C67.7656 49.1187 68.2188 48.7905 68.5312 48.5718C68.875 48.353 69.2344 48.1499 69.6094 47.9624C69.9844 47.7749 70.3438 47.603 70.6875 47.4468C71.0625 47.2593 71.4062 47.0405 71.7188 46.7905C71.9688 46.7905 72.1406 46.8062 72.2344 46.8374C72.3281 46.8687 72.3906 46.8999 72.4219 46.9312C72.4531 46.9624 72.4844 47.0249 72.5156 47.1187C72.5781 47.1812 72.6875 47.2593 72.8438 47.353Z" fill="white"/>
<path d="M119.375 61.4148C120.229 61.4148 121.042 61.2898 121.812 61.0398C122.583 60.7898 123.26 60.4356 123.844 59.9773C124.427 59.5189 124.875 58.9668 125.188 58.321C125.521 57.6752 125.667 56.9564 125.625 56.1648H133.812C133.854 57.9148 133.49 59.5398 132.719 61.0398C131.969 62.5398 130.938 63.8314 129.625 64.9148C128.312 65.9981 126.781 66.8523 125.031 67.4773C123.302 68.0814 121.469 68.3835 119.531 68.3835C116.906 68.3835 114.604 67.946 112.625 67.071C110.646 66.1752 109 64.9564 107.688 63.4148C106.354 61.8731 105.344 60.071 104.656 58.0085C103.99 55.9252 103.656 53.696 103.656 51.321V50.3835C103.656 48.0085 103.99 45.7898 104.656 43.7273C105.323 41.6439 106.323 39.8314 107.656 38.2898C108.99 36.7481 110.635 35.5293 112.594 34.6335C114.573 33.7377 116.865 33.2898 119.469 33.2898C121.552 33.2898 123.479 33.6023 125.25 34.2273C127.021 34.8523 128.552 35.7273 129.844 36.8523C131.115 37.9981 132.104 39.3835 132.812 41.0085C133.521 42.6127 133.854 44.4148 133.812 46.4148H125.625C125.667 45.5814 125.542 44.7898 125.25 44.0398C124.958 43.2898 124.531 42.6439 123.969 42.1023C123.406 41.5606 122.729 41.1335 121.938 40.821C121.146 40.4877 120.281 40.321 119.344 40.321C117.969 40.321 116.833 40.6023 115.938 41.1648C115.042 41.7273 114.333 42.4773 113.812 43.4148C113.271 44.3523 112.885 45.4252 112.656 46.6335C112.448 47.8418 112.344 49.0918 112.344 50.3835V51.321C112.344 52.6335 112.448 53.9043 112.656 55.1335C112.865 56.3418 113.24 57.4043 113.781 58.321C114.302 59.2585 115.01 60.0085 115.906 60.571C116.823 61.1335 117.979 61.4148 119.375 61.4148Z" fill="white"/>
<path d="M168.32 72.7193C166.357 72.7193 164.949 72.1646 164.096 71.0553C163.243 69.9459 162.816 68.3246 162.816 66.1913C162.816 64.2286 163.179 61.6686 163.904 58.5113C164.672 55.3113 165.675 51.7486 166.912 47.8233C168.192 43.8553 169.621 39.7806 171.2 35.5993C172.779 31.3753 174.421 27.2366 176.128 23.1833C177.835 19.0873 179.499 15.3326 181.12 11.9193C181.888 10.4259 182.699 9.40193 183.552 8.84726C184.405 8.2926 185.344 8.01526 186.368 8.01526C187.349 8.01526 188.181 8.2926 188.864 8.84726C189.547 9.35926 189.888 10.1913 189.888 11.3433C189.888 11.5993 189.547 12.5806 188.864 14.2873C188.181 15.9513 187.285 18.1273 186.176 20.8153C185.067 23.4606 183.851 26.4473 182.528 29.7753C181.205 33.0606 179.883 36.4953 178.56 40.0793C177.237 43.6206 176.043 47.1193 174.976 50.5753C173.909 54.0313 173.056 57.2313 172.416 60.1753C173.909 58.1699 175.509 55.9513 177.216 53.5193C178.965 51.0446 180.736 48.5913 182.528 46.1593C184.363 43.6846 186.155 41.4233 187.904 39.3753C189.696 37.3273 191.36 35.6846 192.896 34.4473C194.432 33.2099 195.776 32.5913 196.928 32.5913C199.061 32.5913 200.768 33.1886 202.048 34.3833C203.371 35.5353 204.032 37.5406 204.032 40.3993C204.032 41.7219 203.776 43.3219 203.264 45.1993C202.752 47.0339 202.133 48.9753 201.408 51.0233C200.725 53.0286 200.128 54.9699 199.616 56.8473C199.104 58.7246 198.848 60.3673 198.848 61.7753C198.848 62.5433 199.211 62.9273 199.936 62.9273C202.027 62.9273 204.139 62.4793 206.272 61.5833C208.448 60.6873 210.517 59.5779 212.48 58.2553C214.485 56.8899 216.299 55.5459 217.92 54.2233C219.584 52.8579 220.928 51.7273 221.952 50.8313C222.677 50.1486 223.339 49.7006 223.936 49.4873C224.533 49.2313 225.088 49.1033 225.6 49.1033C227.349 49.1033 228.224 49.9779 228.224 51.7273C228.224 52.0686 228.16 52.4953 228.032 53.0073C227.904 53.4766 227.499 54.0739 226.816 54.7993C226.133 55.5246 225.109 56.5486 223.744 57.8713C222.379 59.1939 220.779 60.6019 218.944 62.0953C217.152 63.5886 215.189 65.0179 213.056 66.3833C210.965 67.7059 208.811 68.7939 206.592 69.6473C204.373 70.5006 202.219 70.9273 200.128 70.9273C196.971 70.9273 194.539 70.0313 192.832 68.2393C191.125 66.4899 190.272 64.1006 190.272 61.0713C190.272 58.9806 190.699 56.3566 191.552 53.1993C192.405 49.9993 193.365 46.7353 194.432 43.4073C192.939 44.8579 191.381 46.5859 189.76 48.5913C188.139 50.5539 186.496 52.6446 184.832 54.8633C183.168 57.0393 181.525 59.1939 179.904 61.3273C178.325 63.4179 176.811 65.3379 175.36 67.0873C173.909 68.7939 172.587 70.1593 171.392 71.1833C170.197 72.2073 169.173 72.7193 168.32 72.7193Z" fill="white"/>
</svg>
