<svg width="237" height="81" viewBox="0 0 237 81" fill="none" xmlns="http://www.w3.org/2000/svg">
<rect width="237" height="81" fill="#FAFAFA"/>
<path d="M97.62 31.92V30.66H101.02V45H99.6V31.92H97.62ZM112.72 31.76L107.14 45H105.72L111.36 31.88H103.36V30.68H112.72V31.76ZM123.844 31.86H116.524V36.98C116.857 36.5133 117.344 36.1333 117.984 35.84C118.624 35.5333 119.317 35.38 120.064 35.38C121.157 35.38 122.051 35.6067 122.744 36.06C123.437 36.5 123.937 37.08 124.244 37.8C124.551 38.5067 124.704 39.2667 124.704 40.08C124.704 41.0133 124.524 41.86 124.164 42.62C123.817 43.3667 123.277 43.96 122.544 44.4C121.824 44.84 120.924 45.06 119.844 45.06C118.471 45.06 117.357 44.7067 116.504 44C115.651 43.28 115.131 42.3133 114.944 41.1H116.324C116.497 41.98 116.897 42.66 117.524 43.14C118.151 43.62 118.924 43.86 119.844 43.86C121.004 43.86 121.877 43.52 122.464 42.84C123.064 42.1467 123.364 41.2333 123.364 40.1C123.364 38.9933 123.064 38.1333 122.464 37.52C121.864 36.8933 121.004 36.58 119.884 36.58C119.111 36.58 118.431 36.76 117.844 37.12C117.257 37.48 116.824 37.9667 116.544 38.58H115.224V30.64H123.844V31.86Z" fill="#888888"/>
<path d="M112 61C116.747 61 121.387 59.5924 125.334 56.9553C129.28 54.3181 132.357 50.5698 134.173 46.1844C135.99 41.799 136.465 36.9734 135.539 32.3178C134.613 27.6623 132.327 23.3859 128.971 20.0294C125.614 16.673 121.338 14.3872 116.682 13.4612C112.027 12.5351 107.201 13.0104 102.816 14.8269C98.4302 16.6434 94.6819 19.7195 92.0447 23.6663C89.4076 27.6131 88 32.2533 88 37C88 40.968 88.96 44.7067 90.6667 48.0053L88 61L100.995 58.3333C104.291 60.0373 108.035 61 112 61Z" stroke="#919191" stroke-linecap="round" stroke-linejoin="round"/>
<path d="M39.5 23.1383C38.12 23.1383 37 24.3099 37 25.7536V39.3529C37 40.7965 38.12 41.9681 39.5 41.9681H52.5C53.88 41.9681 55 40.7965 55 39.3529V36.2146C55 35.7984 55.158 35.3993 55.4393 35.105C55.7206 34.8107 56.1022 34.6454 56.5 34.6454C56.8978 34.6454 57.2794 34.8107 57.5607 35.105C57.842 35.3993 58 35.7984 58 36.2146V39.3529C58 40.8788 57.4205 42.3422 56.3891 43.4212C55.3576 44.5002 53.9587 45.1064 52.5 45.1064H39.5C38.0413 45.1064 36.6424 44.5002 35.6109 43.4212C34.5795 42.3422 34 40.8788 34 39.3529V25.7536C34 24.2276 34.5795 22.7642 35.6109 21.6852C36.6424 20.6062 38.0413 20 39.5 20H42.5C42.8978 20 43.2794 20.1653 43.5607 20.4596C43.842 20.7539 44 21.153 44 21.5692C44 21.9853 43.842 22.3844 43.5607 22.6787C43.2794 22.973 42.8978 23.1383 42.5 23.1383H39.5ZM46 21.5692C46 21.153 46.158 20.7539 46.4393 20.4596C46.7206 20.1653 47.1022 20 47.5 20H56.5C56.8978 20 57.2794 20.1653 57.5607 20.4596C57.842 20.7539 58 21.153 58 21.5692V30.9841C58 31.4002 57.842 31.7993 57.5607 32.0936C57.2794 32.3879 56.8978 32.5532 56.5 32.5532C56.1022 32.5532 55.7206 32.3879 55.4393 32.0936C55.158 31.7993 55 31.4002 55 30.9841V25.3581L48.56 32.095C48.4216 32.2448 48.256 32.3643 48.0729 32.4464C47.8899 32.5286 47.6931 32.5717 47.4939 32.5735C47.2947 32.5752 47.0972 32.5354 46.9129 32.4564C46.7286 32.3774 46.5612 32.2608 46.4204 32.1134C46.2796 31.966 46.1683 31.7907 46.093 31.5979C46.0177 31.405 45.9798 31.1983 45.9816 30.99C45.9835 30.7816 46.0249 30.5758 46.1036 30.3844C46.1823 30.193 46.2967 30.0199 46.44 29.8752L52.88 23.1383H47.5C47.1022 23.1383 46.7206 22.973 46.4393 22.6787C46.158 22.3844 46 21.9853 46 21.5692Z" fill="#888888"/>
<rect x="166.5" y="5.5" width="55" height="56" rx="11.5" stroke="#919191"/>
<path d="M185 28.0001H203C203.182 27.9995 203.361 27.9493 203.517 27.8547C203.672 27.7602 203.8 27.6249 203.884 27.4636C203.969 27.3022 204.008 27.1207 203.997 26.9388C203.986 26.7569 203.926 26.5814 203.823 26.4311L194.823 13.4311C194.45 12.8921 193.552 12.8921 193.178 13.4311L184.178 26.4311C184.074 26.581 184.013 26.7567 184.001 26.9389C183.99 27.1211 184.029 27.303 184.114 27.4647C184.198 27.6264 184.326 27.7619 184.482 27.8562C184.638 27.9506 184.817 28.0004 185 28.0001Z" fill="#0FA958"/>
<path d="M177.918 50.01C180.126 48.354 181.83 46.872 183.03 45.564C184.242 44.244 184.848 42.954 184.848 41.694C184.848 40.866 184.638 40.206 184.218 39.714C183.81 39.21 183.138 38.958 182.202 38.958C181.29 38.958 180.582 39.246 180.078 39.822C179.586 40.386 179.31 41.142 179.25 42.09H178.026C178.098 40.758 178.506 39.726 179.25 38.994C180.006 38.25 180.99 37.878 182.202 37.878C183.366 37.878 184.308 38.208 185.028 38.868C185.748 39.516 186.108 40.44 186.108 41.64C186.108 43.092 185.502 44.502 184.29 45.87C183.09 47.226 181.608 48.552 179.844 49.848H186.504V50.91H177.918V50.01ZM188.417 41.388C188.501 40.296 188.921 39.438 189.677 38.814C190.445 38.178 191.435 37.86 192.647 37.86C193.451 37.86 194.141 38.004 194.717 38.292C195.293 38.58 195.725 38.976 196.013 39.48C196.313 39.972 196.463 40.53 196.463 41.154C196.463 41.91 196.241 42.564 195.797 43.116C195.353 43.668 194.723 44.01 193.907 44.142V44.232C194.759 44.4 195.437 44.772 195.941 45.348C196.445 45.912 196.697 46.656 196.697 47.58C196.697 48.612 196.349 49.458 195.653 50.118C194.969 50.766 193.973 51.09 192.665 51.09C191.417 51.09 190.391 50.766 189.587 50.118C188.783 49.458 188.321 48.528 188.201 47.328H189.425C189.533 48.132 189.869 48.786 190.433 49.29C190.997 49.782 191.741 50.028 192.665 50.028C193.577 50.028 194.273 49.788 194.753 49.308C195.245 48.828 195.491 48.216 195.491 47.472C195.491 45.648 194.177 44.736 191.549 44.736H191.153V43.674H191.567C194.015 43.674 195.239 42.876 195.239 41.28C195.239 40.584 195.011 40.026 194.555 39.606C194.099 39.174 193.451 38.958 192.611 38.958C191.795 38.958 191.117 39.174 190.577 39.606C190.049 40.026 189.737 40.62 189.641 41.388H188.417ZM198.442 47.94V46.986L204.994 38.166H206.488V46.842H208.414V47.94H206.488V51H205.246V47.94H198.442ZM205.3 39.552L199.9 46.842H205.3V39.552Z" fill="#888888"/>
</svg>
