<svg width="298" height="92" viewBox="0 0 298 92" fill="none" xmlns="http://www.w3.org/2000/svg">
<path d="M13.4375 54.8783V71.5658H4.65625V26.0658H20.2188C22.6979 26.0658 24.9375 26.4304 26.9375 27.1596C28.9375 27.8679 30.6458 28.8575 32.0625 30.1283C33.4583 31.42 34.5312 32.9616 35.2812 34.7533C36.0521 36.545 36.4375 38.5346 36.4375 40.7221C36.4375 42.7637 36.0521 44.6491 35.2812 46.3783C34.5312 48.1075 33.4583 49.5971 32.0625 50.8471C30.6458 52.1179 28.9375 53.1075 26.9375 53.8158C24.9375 54.5241 22.6979 54.8783 20.2188 54.8783H13.4375ZM13.4375 47.7533H20.2188C21.4688 47.7533 22.5521 47.5658 23.4688 47.1908C24.3854 46.8158 25.1562 46.3054 25.7812 45.6596C26.3854 45.0137 26.8333 44.2741 27.125 43.4408C27.4375 42.5866 27.5938 41.7012 27.5938 40.7846C27.5938 39.7221 27.4375 38.7325 27.125 37.8158C26.8333 36.8991 26.3854 36.0971 25.7812 35.4096C25.1562 34.7221 24.3854 34.1804 23.4688 33.7846C22.5521 33.3887 21.4688 33.1908 20.2188 33.1908H13.4375V47.7533Z" fill="white"/>
<path d="M56.112 75.381C53.232 75.381 50.96 74.501 49.296 72.741C47.664 70.949 46.848 68.405 46.848 65.109C46.848 63.317 47.088 61.221 47.568 58.821C48.048 56.389 48.672 53.829 49.44 51.141C50.24 48.421 51.088 45.733 51.984 43.077C52.912 40.421 53.824 37.957 54.72 35.685C55.616 33.413 56.4 31.509 57.072 29.973C57.648 28.789 58.464 28.197 59.52 28.197C60.192 28.197 60.736 28.405 61.152 28.821C61.6 29.237 61.824 29.909 61.824 30.837C61.824 31.285 61.6 32.261 61.152 33.765C60.704 35.269 60.112 37.125 59.376 39.333C58.672 41.509 57.904 43.861 57.072 46.389C56.272 48.917 55.504 51.461 54.768 54.021C54.064 56.581 53.488 58.997 53.04 61.269C52.592 63.509 52.368 65.413 52.368 66.981C52.368 67.621 52.544 68.133 52.896 68.517C53.28 68.901 53.776 69.093 54.384 69.093C55.696 69.093 57.04 68.853 58.416 68.373C59.824 67.893 61.2 67.285 62.544 66.549C63.92 65.813 65.216 65.029 66.432 64.197C67.648 63.365 68.736 62.581 69.696 61.845C70.688 61.077 71.488 60.469 72.096 60.021C72.896 59.413 73.44 59.109 73.728 59.109C74.816 59.109 75.36 59.637 75.36 60.693C75.36 60.949 75.04 61.477 74.4 62.277C73.856 62.981 73.088 63.877 72.096 64.965C71.104 66.053 69.952 67.205 68.64 68.421C67.36 69.605 65.984 70.725 64.512 71.781C63.072 72.837 61.632 73.701 60.192 74.373C58.752 75.045 57.392 75.381 56.112 75.381Z" fill="white"/>
<path d="M108.148 64.7965C107.992 64.484 107.859 64.1246 107.75 63.7184C107.641 63.3121 107.547 62.8824 107.469 62.4293C107.109 62.8199 106.695 63.1871 106.227 63.5309C105.758 63.8746 105.242 64.1715 104.68 64.4215C104.102 64.6871 103.469 64.8902 102.781 65.0309C102.094 65.1871 101.352 65.2652 100.555 65.2652C99.2578 65.2652 98.0625 65.0777 96.9688 64.7027C95.8906 64.3277 94.9609 63.8043 94.1797 63.1324C93.3984 62.4605 92.7891 61.6637 92.3516 60.7418C91.9141 59.8043 91.6953 58.7887 91.6953 57.6949C91.6953 56.2887 91.9688 55.0465 92.5156 53.9684C93.0625 52.8746 93.8828 51.9762 94.9766 51.273C95.9609 50.6324 97.1719 50.148 98.6094 49.8199C100.062 49.4762 101.727 49.3043 103.602 49.3043H107.234V47.8043C107.234 47.2105 107.141 46.6793 106.953 46.2105C106.766 45.7262 106.484 45.3121 106.109 44.9684C105.719 44.609 105.227 44.3355 104.633 44.148C104.055 43.9449 103.375 43.8434 102.594 43.8434C101.906 43.8434 101.312 43.9293 100.812 44.1012C100.312 44.2574 99.9062 44.484 99.5938 44.7809C99.3125 45.0465 99.1016 45.3668 98.9609 45.7418C98.8359 46.1168 98.7734 46.5309 98.7734 46.984H92.2578C92.2578 45.9059 92.4922 44.8824 92.9609 43.9137C93.4453 42.9449 94.1484 42.0934 95.0703 41.359C95.9766 40.6246 97.0859 40.0465 98.3984 39.6246C99.7266 39.1871 101.242 38.9684 102.945 38.9684C104.477 38.9684 105.898 39.1559 107.211 39.5309C108.539 39.9059 109.688 40.4605 110.656 41.1949C111.625 41.9293 112.383 42.859 112.93 43.984C113.477 45.0934 113.75 46.3824 113.75 47.8512V58.7262C113.75 60.0855 113.836 61.2105 114.008 62.1012C114.18 62.9918 114.43 63.7574 114.758 64.398V64.7965H108.148ZM101.938 60.2262C102.594 60.2262 103.203 60.148 103.766 59.9918C104.328 59.8355 104.836 59.6324 105.289 59.3824C105.742 59.1324 106.133 58.8512 106.461 58.5387C106.789 58.2105 107.047 57.8824 107.234 57.5543V53.1949H103.906C102.891 53.1949 102.023 53.2965 101.305 53.4996C100.586 53.6871 100 53.9527 99.5469 54.2965C99.0938 54.6559 98.7578 55.0855 98.5391 55.5855C98.3203 56.0699 98.2109 56.6012 98.2109 57.1793C98.2109 57.6324 98.2891 58.0543 98.4453 58.4449C98.6172 58.8199 98.8594 59.1402 99.1719 59.4059C99.4844 59.6559 99.8672 59.859 100.32 60.0152C100.789 60.1559 101.328 60.2262 101.938 60.2262Z" fill="white"/>
<path d="M143.406 71.5658V37.7533H151.281L151.812 42.4408C152.25 41.8158 152.729 41.2429 153.25 40.7221C153.771 40.2012 154.323 39.7325 154.906 39.3158C155.906 38.6075 157 38.0658 158.188 37.6908C159.375 37.3158 160.635 37.1283 161.969 37.1283C163.677 37.1283 165.24 37.3783 166.656 37.8783C168.073 38.3783 169.302 39.17 170.344 40.2533C171.365 41.3575 172.156 42.7741 172.719 44.5033C173.302 46.2116 173.594 48.295 173.594 50.7533V71.5658H164.906V50.8783C164.906 49.545 164.75 48.4512 164.438 47.5971C164.146 46.7221 163.719 46.0346 163.156 45.5346C162.594 45.0346 161.917 44.6908 161.125 44.5033C160.333 44.295 159.438 44.1908 158.438 44.1908C157.604 44.1908 156.833 44.2846 156.125 44.4721C155.438 44.6596 154.823 44.9408 154.281 45.3158C153.844 45.5866 153.448 45.9096 153.094 46.2846C152.74 46.6596 152.417 47.0762 152.125 47.5346V71.5658H143.406Z" fill="white"/>
<g filter="url(#filter0_d_15_63)">
<path d="M214.104 69.6495C211.459 69.6495 209.325 68.7322 207.704 66.8975C206.083 65.0202 205.272 62.0122 205.272 57.8735C205.272 55.2282 205.571 52.5829 206.168 49.9375C206.808 47.2495 207.683 44.7109 208.792 42.3215C209.944 39.8895 211.267 37.7349 212.76 35.8575C214.296 33.9802 215.981 32.5082 217.816 31.4415C219.651 30.3322 221.549 29.7775 223.512 29.7775C226.84 29.7775 229.443 30.6735 231.32 32.4655C233.197 34.2575 234.136 36.5402 234.136 39.3135C234.136 41.4469 233.539 43.3882 232.344 45.1375C231.192 46.8442 229.613 48.3802 227.608 49.7455C225.603 51.1109 223.363 52.3482 220.888 53.4575C218.413 54.5669 215.875 55.5695 213.272 56.4655C213.059 58.0015 212.952 59.3669 212.952 60.5615C212.952 61.2869 213.357 61.6495 214.168 61.6495C216.088 61.6495 218.136 61.3509 220.312 60.7535C222.531 60.1135 224.771 59.3029 227.032 58.3215C229.293 57.2975 231.469 56.2522 233.56 55.1855C235.651 54.0762 237.549 53.0309 239.256 52.0495C241.005 51.0255 242.435 50.2149 243.544 49.6175C244.696 48.9775 245.443 48.6575 245.784 48.6575C246.723 48.6575 247.405 48.9349 247.832 49.4895C248.259 50.0442 248.472 50.6415 248.472 51.2815C248.472 51.5802 247.896 52.2415 246.744 53.2655C245.635 54.2895 244.099 55.5055 242.136 56.9135C240.216 58.2789 238.04 59.7082 235.608 61.2015C233.219 62.6522 230.723 64.0389 228.12 65.3615C225.56 66.6415 223.064 67.6655 220.632 68.4335C218.243 69.2442 216.067 69.6495 214.104 69.6495ZM214.36 50.7695C216.109 49.7455 217.837 48.6789 219.544 47.5695C221.293 46.4175 222.744 45.1375 223.896 43.7295C225.048 42.2789 225.624 40.5935 225.624 38.6735C225.624 38.1189 225.475 37.7562 225.176 37.5855C224.877 37.3722 224.451 37.2655 223.896 37.2655C222.403 37.2655 221.037 37.9269 219.8 39.2495C218.605 40.5722 217.539 42.2789 216.6 44.3695C215.704 46.4175 214.957 48.5509 214.36 50.7695Z" fill="white"/>
</g>
<path d="M279.344 30.4951V38.7764H291.969V45.1826H279.344V59.7139C279.344 60.943 279.479 61.9743 279.75 62.8076C280.042 63.6201 280.448 64.266 280.969 64.7451C281.49 65.2451 282.115 65.5993 282.844 65.8076C283.594 66.016 284.427 66.1201 285.344 66.1201C286.01 66.1201 286.688 66.0889 287.375 66.0264C288.083 65.9639 288.76 65.8805 289.406 65.7764C290.031 65.693 290.615 65.5993 291.156 65.4951C291.719 65.391 292.198 65.2868 292.594 65.1826L293.438 71.1514C292.833 71.5055 292.125 71.818 291.312 72.0889C290.5 72.3389 289.635 72.5472 288.719 72.7139C287.802 72.8805 286.844 73.0055 285.844 73.0889C284.865 73.193 283.896 73.2451 282.938 73.2451C281.083 73.2451 279.396 73.0055 277.875 72.5264C276.375 72.0264 275.094 71.2555 274.031 70.2139C272.948 69.193 272.115 67.891 271.531 66.3076C270.948 64.7035 270.656 62.7868 270.656 60.5576V45.1826H262.938V38.7764H270.656V30.4951H279.344Z" fill="white"/>
<defs>
<filter id="filter0_d_15_63" x="201.272" y="29.7775" width="51.2" height="47.872" filterUnits="userSpaceOnUse" color-interpolation-filters="sRGB">
<feFlood flood-opacity="0" result="BackgroundImageFix"/>
<feColorMatrix in="SourceAlpha" type="matrix" values="0 0 0 0 0 0 0 0 0 0 0 0 0 0 0 0 0 0 127 0" result="hardAlpha"/>
<feOffset dy="4"/>
<feGaussianBlur stdDeviation="2"/>
<feComposite in2="hardAlpha" operator="out"/>
<feColorMatrix type="matrix" values="0 0 0 0 0 0 0 0 0 0 0 0 0 0 0 0 0 0 0.25 0"/>
<feBlend mode="normal" in2="BackgroundImageFix" result="effect1_dropShadow_15_63"/>
<feBlend mode="normal" in="SourceGraphic" in2="effect1_dropShadow_15_63" result="shape"/>
</filter>
</defs>
</svg>
