<svg width="24" height="34" viewBox="0 0 24 34" fill="none" xmlns="http://www.w3.org/2000/svg">
<path d="M22.8571 26.3301H22V13.9072C22 8.75163 18.275 4.49129 13.4286 3.78245V2.36112C13.4286 1.55363 12.7893 0.899597 12 0.899597C11.2107 0.899597 10.5714 1.55363 10.5714 2.36112V3.78245C5.725 4.49129 2 8.75163 2 13.9072V26.3301H1.14286C0.510714 26.3301 0 26.8526 0 27.4993V28.6685C0 28.8293 0.128571 28.9608 0.285714 28.9608H8C8 31.2189 9.79286 33.0531 12 33.0531C14.2071 33.0531 16 31.2189 16 28.9608H23.7143C23.8714 28.9608 24 28.8293 24 28.6685V27.4993C24 26.8526 23.4893 26.3301 22.8571 26.3301ZM12 30.7147C11.0536 30.7147 10.2857 29.9291 10.2857 28.9608H13.7143C13.7143 29.9291 12.9464 30.7147 12 30.7147ZM4.57143 26.3301V13.9072C4.57143 11.8756 5.34286 9.96835 6.74643 8.5324C8.15 7.09646 10.0143 6.30723 12 6.30723C13.9857 6.30723 15.85 7.09646 17.2536 8.5324C18.6571 9.96835 19.4286 11.8756 19.4286 13.9072V26.3301H4.57143Z" fill="white"/>
</svg>
