<svg width="564" height="99" viewBox="0 0 564 99" fill="none" xmlns="http://www.w3.org/2000/svg">
<path d="M13.4375 54.7619V71.4494H4.65625V25.9494H20.2188C22.6979 25.9494 24.9375 26.314 26.9375 27.0432C28.9375 27.7515 30.6458 28.7411 32.0625 30.0119C33.4583 31.3036 34.5312 32.8453 35.2812 34.6369C36.0521 36.4286 36.4375 38.4182 36.4375 40.6057C36.4375 42.6473 36.0521 44.5328 35.2812 46.2619C34.5312 47.9911 33.4583 49.4807 32.0625 50.7307C30.6458 52.0015 28.9375 52.9911 26.9375 53.6994C24.9375 54.4078 22.6979 54.7619 20.2188 54.7619H13.4375ZM13.4375 47.6369H20.2188C21.4688 47.6369 22.5521 47.4494 23.4688 47.0744C24.3854 46.6994 25.1562 46.189 25.7812 45.5432C26.3854 44.8973 26.8333 44.1578 27.125 43.3244C27.4375 42.4703 27.5938 41.5848 27.5938 40.6682C27.5938 39.6057 27.4375 38.6161 27.125 37.6994C26.8333 36.7828 26.3854 35.9807 25.7812 35.2932C25.1562 34.6057 24.3854 34.064 23.4688 33.6682C22.5521 33.2723 21.4688 33.0744 20.2188 33.0744H13.4375V47.6369Z" fill="#FEC123"/>
<path d="M56.112 76.8719C53.232 76.8719 50.96 75.9919 49.296 74.2319C47.664 72.4399 46.848 69.8959 46.848 66.5999C46.848 64.8079 47.088 62.7119 47.568 60.3119C48.048 57.8799 48.672 55.3199 49.44 52.6319C50.24 49.9119 51.088 47.2239 51.984 44.5679C52.912 41.9119 53.824 39.4479 54.72 37.1759C55.616 34.9039 56.4 32.9999 57.072 31.4639C57.648 30.2799 58.464 29.6879 59.52 29.6879C60.192 29.6879 60.736 29.8959 61.152 30.3119C61.6 30.7279 61.824 31.3999 61.824 32.3279C61.824 32.7759 61.6 33.7519 61.152 35.2559C60.704 36.7599 60.112 38.6159 59.376 40.8239C58.672 42.9999 57.904 45.3519 57.072 47.8799C56.272 50.4079 55.504 52.9519 54.768 55.5119C54.064 58.0719 53.488 60.4879 53.04 62.7599C52.592 64.9999 52.368 66.9039 52.368 68.4719C52.368 69.1119 52.544 69.6239 52.896 70.0079C53.28 70.3919 53.776 70.5839 54.384 70.5839C55.696 70.5839 57.04 70.3439 58.416 69.8639C59.824 69.3839 61.2 68.7759 62.544 68.0399C63.92 67.3039 65.216 66.5199 66.432 65.6879C67.648 64.8559 68.736 64.0719 69.696 63.3359C70.688 62.5679 71.488 61.9599 72.096 61.5119C72.896 60.9039 73.44 60.5999 73.728 60.5999C74.816 60.5999 75.36 61.1279 75.36 62.1839C75.36 62.4399 75.04 62.9679 74.4 63.7679C73.856 64.4719 73.088 65.3679 72.096 66.4559C71.104 67.5439 69.952 68.6959 68.64 69.9119C67.36 71.0959 65.984 72.2159 64.512 73.2719C63.072 74.3279 61.632 75.1919 60.192 75.8639C58.752 76.5359 57.392 76.8719 56.112 76.8719Z" fill="#FEC123"/>
<path d="M108.148 65.573C107.992 65.2605 107.859 64.9012 107.75 64.4949C107.641 64.0887 107.547 63.659 107.469 63.2058C107.109 63.5965 106.695 63.9637 106.227 64.3074C105.758 64.6512 105.242 64.948 104.68 65.198C104.102 65.4637 103.469 65.6668 102.781 65.8074C102.094 65.9637 101.352 66.0418 100.555 66.0418C99.2578 66.0418 98.0625 65.8543 96.9688 65.4793C95.8906 65.1043 94.9609 64.5808 94.1797 63.909C93.3984 63.2371 92.7891 62.4402 92.3516 61.5183C91.9141 60.5808 91.6953 59.5652 91.6953 58.4715C91.6953 57.0652 91.9688 55.823 92.5156 54.7449C93.0625 53.6512 93.8828 52.7527 94.9766 52.0496C95.9609 51.409 97.1719 50.9246 98.6094 50.5965C100.062 50.2527 101.727 50.0808 103.602 50.0808H107.234V48.5808C107.234 47.9871 107.141 47.4558 106.953 46.9871C106.766 46.5027 106.484 46.0887 106.109 45.7449C105.719 45.3855 105.227 45.1121 104.633 44.9246C104.055 44.7215 103.375 44.6199 102.594 44.6199C101.906 44.6199 101.312 44.7058 100.812 44.8777C100.312 45.034 99.9062 45.2605 99.5938 45.5574C99.3125 45.823 99.1016 46.1433 98.9609 46.5183C98.8359 46.8933 98.7734 47.3074 98.7734 47.7605H92.2578C92.2578 46.6824 92.4922 45.659 92.9609 44.6902C93.4453 43.7215 94.1484 42.8699 95.0703 42.1355C95.9766 41.4012 97.0859 40.823 98.3984 40.4012C99.7266 39.9637 101.242 39.7449 102.945 39.7449C104.477 39.7449 105.898 39.9324 107.211 40.3074C108.539 40.6824 109.688 41.2371 110.656 41.9715C111.625 42.7058 112.383 43.6355 112.93 44.7605C113.477 45.8699 113.75 47.159 113.75 48.6277V59.5027C113.75 60.8621 113.836 61.9871 114.008 62.8777C114.18 63.7683 114.43 64.534 114.758 65.1746V65.573H108.148ZM101.938 61.0027C102.594 61.0027 103.203 60.9246 103.766 60.7683C104.328 60.6121 104.836 60.409 105.289 60.159C105.742 59.909 106.133 59.6277 106.461 59.3152C106.789 58.9871 107.047 58.659 107.234 58.3308V53.9715H103.906C102.891 53.9715 102.023 54.073 101.305 54.2762C100.586 54.4637 100 54.7293 99.5469 55.073C99.0938 55.4324 98.7578 55.8621 98.5391 56.3621C98.3203 56.8465 98.2109 57.3777 98.2109 57.9558C98.2109 58.409 98.2891 58.8308 98.4453 59.2215C98.6172 59.5965 98.8594 59.9168 99.1719 60.1824C99.4844 60.4324 99.8672 60.6355 100.32 60.7918C100.789 60.9324 101.328 61.0027 101.938 61.0027Z" fill="#FEC123"/>
<path d="M143.406 71.4494V37.6369H151.281L151.812 42.3244C152.25 41.6994 152.729 41.1265 153.25 40.6057C153.771 40.0848 154.323 39.6161 154.906 39.1994C155.906 38.4911 157 37.9494 158.188 37.5744C159.375 37.1994 160.635 37.0119 161.969 37.0119C163.677 37.0119 165.24 37.2619 166.656 37.7619C168.073 38.2619 169.302 39.0536 170.344 40.1369C171.365 41.2411 172.156 42.6578 172.719 44.3869C173.302 46.0953 173.594 48.1786 173.594 50.6369V71.4494H164.906V50.7619C164.906 49.4286 164.75 48.3348 164.438 47.4807C164.146 46.6057 163.719 45.9182 163.156 45.4182C162.594 44.9182 161.917 44.5744 161.125 44.3869C160.333 44.1786 159.438 44.0744 158.438 44.0744C157.604 44.0744 156.833 44.1682 156.125 44.3557C155.438 44.5432 154.823 44.8244 154.281 45.1994C153.844 45.4703 153.448 45.7932 153.094 46.1682C152.74 46.5432 152.417 46.9598 152.125 47.4182V71.4494H143.406Z" fill="#FEC123"/>
<path d="M214.104 69.176C211.459 69.176 209.325 68.2587 207.704 66.424C206.083 64.5467 205.272 61.5387 205.272 57.4C205.272 54.7547 205.571 52.1093 206.168 49.464C206.808 46.776 207.683 44.2373 208.792 41.848C209.944 39.416 211.267 37.2613 212.76 35.384C214.296 33.5067 215.981 32.0347 217.816 30.968C219.651 29.8587 221.549 29.304 223.512 29.304C226.84 29.304 229.443 30.2 231.32 31.992C233.197 33.784 234.136 36.0667 234.136 38.84C234.136 40.9733 233.539 42.9147 232.344 44.664C231.192 46.3707 229.613 47.9067 227.608 49.272C225.603 50.6373 223.363 51.8747 220.888 52.984C218.413 54.0933 215.875 55.096 213.272 55.992C213.059 57.528 212.952 58.8933 212.952 60.088C212.952 60.8133 213.357 61.176 214.168 61.176C216.088 61.176 218.136 60.8773 220.312 60.28C222.531 59.64 224.771 58.8293 227.032 57.848C229.293 56.824 231.469 55.7787 233.56 54.712C235.651 53.6027 237.549 52.5573 239.256 51.576C241.005 50.552 242.435 49.7413 243.544 49.144C244.696 48.504 245.443 48.184 245.784 48.184C246.723 48.184 247.405 48.4613 247.832 49.016C248.259 49.5707 248.472 50.168 248.472 50.808C248.472 51.1067 247.896 51.768 246.744 52.792C245.635 53.816 244.099 55.032 242.136 56.44C240.216 57.8053 238.04 59.2347 235.608 60.728C233.219 62.1787 230.723 63.5653 228.12 64.888C225.56 66.168 223.064 67.192 220.632 67.96C218.243 68.7707 216.067 69.176 214.104 69.176ZM214.36 50.296C216.109 49.272 217.837 48.2053 219.544 47.096C221.293 45.944 222.744 44.664 223.896 43.256C225.048 41.8053 225.624 40.12 225.624 38.2C225.624 37.6453 225.475 37.2827 225.176 37.112C224.877 36.8987 224.451 36.792 223.896 36.792C222.403 36.792 221.037 37.4533 219.8 38.776C218.605 40.0987 217.539 41.8053 216.6 43.896C215.704 45.944 214.957 48.0773 214.36 50.296Z" fill="#FEC123"/>
<path d="M279.344 30.468V38.7493H291.969V45.1555H279.344V59.6868C279.344 60.916 279.479 61.9472 279.75 62.7805C280.042 63.593 280.448 64.2389 280.969 64.718C281.49 65.218 282.115 65.5722 282.844 65.7805C283.594 65.9889 284.427 66.093 285.344 66.093C286.01 66.093 286.688 66.0618 287.375 65.9993C288.083 65.9368 288.76 65.8535 289.406 65.7493C290.031 65.666 290.615 65.5722 291.156 65.468C291.719 65.3639 292.198 65.2597 292.594 65.1555L293.438 71.1243C292.833 71.4785 292.125 71.791 291.312 72.0618C290.5 72.3118 289.635 72.5201 288.719 72.6868C287.802 72.8535 286.844 72.9785 285.844 73.0618C284.865 73.166 283.896 73.218 282.938 73.218C281.083 73.218 279.396 72.9785 277.875 72.4993C276.375 71.9993 275.094 71.2285 274.031 70.1868C272.948 69.166 272.115 67.8639 271.531 66.2805C270.948 64.6764 270.656 62.7597 270.656 60.5305V45.1555H262.938V38.7493H270.656V30.468H279.344Z" fill="#FEC123"/>
<path d="M372.531 34.0927H358.5V72.4364H349.688V34.0927H335.844V26.9364H372.531V34.0927Z" fill="#FEC123"/>
<path d="M404.75 53.93C404.812 54.0863 405.031 54.4144 405.406 54.9144C405.812 55.4144 406.266 55.9613 406.766 56.555C407.266 57.1488 407.734 57.7269 408.172 58.2894C408.641 58.8206 408.969 59.2113 409.156 59.4613C409.5 59.8988 409.828 60.3363 410.141 60.7738C410.484 61.18 410.797 61.6175 411.078 62.0863L411.922 63.4925C412.172 63.805 412.391 64.0706 412.578 64.2894C412.797 64.5081 412.969 64.805 413.094 65.18C413.156 65.43 413.188 65.6019 413.188 65.6956C413.188 65.9144 413.109 66.0706 412.953 66.1644C412.703 66.1644 412.562 66.1956 412.531 66.2581C412.531 66.3519 412.469 66.43 412.344 66.4925C412.219 66.555 412.016 66.5863 411.734 66.5863C411.484 66.6175 411.281 66.6331 411.125 66.6331C410.844 66.6331 410.484 66.6175 410.047 66.5863C409.641 66.5863 409.312 66.6331 409.062 66.7269C409 66.7581 408.906 66.805 408.781 66.8675C408.656 66.93 408.562 66.9613 408.5 66.9613C408.25 66.9613 408.062 66.9144 407.938 66.8206C407.844 66.7581 407.703 66.7113 407.516 66.68C407.266 66.3988 407.047 66.1175 406.859 65.8363C406.703 65.5238 406.516 65.2113 406.297 64.8988C406.078 64.68 405.859 64.4925 405.641 64.3363C405.422 64.1488 405.234 63.9456 405.078 63.7269C404.609 63.0394 404.125 62.3675 403.625 61.7113C403.125 61.055 402.609 60.4144 402.078 59.7894C401.828 59.4456 401.562 59.1331 401.281 58.8519C401 58.5706 400.734 58.2581 400.484 57.9144C400.234 57.6019 400 57.2738 399.781 56.93C399.562 56.555 399.344 56.1956 399.125 55.8519C398.938 55.5706 398.688 55.2113 398.375 54.7738C398.062 54.305 397.719 53.8519 397.344 53.4144C396.969 52.9456 396.594 52.5081 396.219 52.1019C395.844 51.6956 395.531 51.3831 395.281 51.1644C395.25 50.9769 395.172 50.8363 395.047 50.7425C394.922 50.6175 394.781 50.5081 394.625 50.4144C394.562 50.2581 394.5 50.1175 394.438 49.9925C394.344 49.8363 394.297 49.68 394.297 49.5238C394.297 49.305 394.344 49.1019 394.438 48.9144C394.5 48.7894 394.547 48.68 394.578 48.5863C394.578 48.4613 394.609 48.3363 394.672 48.2113C394.828 47.8675 395.031 47.5394 395.281 47.2269C395.562 46.8831 395.781 46.5238 395.938 46.1488C396 46.055 396.031 45.9613 396.031 45.8675C396.031 45.7425 396.062 45.6331 396.125 45.5394C396.188 45.2894 396.312 45.0863 396.5 44.93C396.719 44.7425 396.891 44.5394 397.016 44.3206C397.172 44.0706 397.312 43.8206 397.438 43.5706C397.594 43.2894 397.75 42.9925 397.906 42.68C398.375 41.8988 398.859 41.1488 399.359 40.43C399.891 39.68 400.422 38.93 400.953 38.18C401.359 37.555 401.75 36.9613 402.125 36.3988C402.531 35.805 402.938 35.2113 403.344 34.6175C403.562 34.3363 403.797 34.0081 404.047 33.6331C404.297 33.2581 404.562 32.8831 404.844 32.5081C405.156 32.1331 405.469 31.7894 405.781 31.4769C406.094 31.1644 406.406 30.9144 406.719 30.7269C407.188 30.6956 407.5 30.805 407.656 31.055C407.812 31.2738 408.047 31.3831 408.359 31.3831C408.766 31.4769 409.031 31.6019 409.156 31.7581C409.281 31.9144 409.422 32.0706 409.578 32.2269C410.016 32.2269 410.359 32.305 410.609 32.4613C410.891 32.6175 411.156 32.8519 411.406 33.1644C411.312 33.5081 411.172 33.8206 410.984 34.1019C410.797 34.3519 410.625 34.6175 410.469 34.8988C410.219 35.0238 410.031 35.1956 409.906 35.4144C409.812 35.6331 409.656 35.805 409.438 35.93C409.125 36.4613 408.797 36.9769 408.453 37.4769C408.109 37.9456 407.766 38.4144 407.422 38.8831C407.234 39.1644 407.031 39.4144 406.812 39.6331C406.625 39.8519 406.453 40.0863 406.297 40.3363C406.234 40.43 406.172 40.5394 406.109 40.6644C406.078 40.7581 406.031 40.8519 405.969 40.9456C405.594 41.5394 405.188 42.1019 404.75 42.6331C404.312 43.1331 403.906 43.6956 403.531 44.3206C403.406 44.5394 403.297 44.7738 403.203 45.0238C403.141 45.2425 403.047 45.4613 402.922 45.68C402.797 45.8675 402.609 46.1175 402.359 46.43C402.141 46.7425 401.922 47.0863 401.703 47.4613C401.484 47.805 401.281 48.1488 401.094 48.4925C400.938 48.805 400.859 49.0706 400.859 49.2894C400.891 49.4456 401.078 49.7581 401.422 50.2269C401.797 50.6644 402.203 51.1488 402.641 51.68C403.109 52.18 403.547 52.6644 403.953 53.1331C404.359 53.5706 404.625 53.8363 404.75 53.93ZM407.844 45.3988C408.062 45.8675 408.297 46.2738 408.547 46.6175C408.641 46.7425 408.75 46.8519 408.875 46.9456C409 47.0394 409.094 47.1644 409.156 47.3206C409.219 47.3831 409.281 47.5238 409.344 47.7425C409.406 47.93 409.469 48.0706 409.531 48.1644C409.625 48.4144 409.812 48.6956 410.094 49.0081C410.375 49.3206 410.516 49.6019 410.516 49.8519C410.516 50.0081 410.484 50.18 410.422 50.3675C410.359 50.555 410.312 50.7269 410.281 50.8831C410.25 51.0706 410.234 51.2738 410.234 51.4925C410.234 51.68 410.172 51.8519 410.047 52.0081C409.891 52.1644 409.719 52.2581 409.531 52.2894C409.344 52.3206 409.172 52.3988 409.016 52.5238C408.953 52.5863 408.859 52.6956 408.734 52.8519C408.609 53.0081 408.484 53.18 408.359 53.3675C408.234 53.555 408.109 53.7425 407.984 53.93C407.891 54.0863 407.844 54.2113 407.844 54.305C407.469 54.3363 407.219 54.3519 407.094 54.3519C407 54.3206 406.891 54.3206 406.766 54.3519C406.609 54.1956 406.438 54.0706 406.25 53.9769C406.094 53.8519 405.891 53.7425 405.641 53.6488C405.578 53.3988 405.438 53.1175 405.219 52.805C405 52.4613 404.812 52.18 404.656 51.9613L404.328 51.5394C403.859 50.8831 403.422 50.2581 403.016 49.6644C402.641 49.0394 402.359 48.3519 402.172 47.6019C402.766 47.1644 403.219 46.8363 403.531 46.6175C403.875 46.3988 404.234 46.1956 404.609 46.0081C404.984 45.8206 405.344 45.6488 405.688 45.4925C406.062 45.305 406.406 45.0863 406.719 44.8363C406.969 44.8363 407.141 44.8519 407.234 44.8831C407.328 44.9144 407.391 44.9456 407.422 44.9769C407.453 45.0081 407.484 45.0706 407.516 45.1644C407.578 45.2269 407.688 45.305 407.844 45.3988Z" fill="#FEC123"/>
<path d="M454.375 66.1239C455.229 66.1239 456.042 65.9989 456.812 65.7489C457.583 65.4989 458.26 65.1447 458.844 64.6864C459.427 64.2281 459.875 63.676 460.188 63.0302C460.521 62.3843 460.667 61.6656 460.625 60.8739H468.812C468.854 62.6239 468.49 64.2489 467.719 65.7489C466.969 67.2489 465.938 68.5406 464.625 69.6239C463.312 70.7072 461.781 71.5614 460.031 72.1864C458.302 72.7906 456.469 73.0927 454.531 73.0927C451.906 73.0927 449.604 72.6552 447.625 71.7802C445.646 70.8843 444 69.6656 442.688 68.1239C441.354 66.5822 440.344 64.7802 439.656 62.7177C438.99 60.6343 438.656 58.4052 438.656 56.0302V55.0927C438.656 52.7177 438.99 50.4989 439.656 48.4364C440.323 46.3531 441.323 44.5406 442.656 42.9989C443.99 41.4572 445.635 40.2385 447.594 39.3427C449.573 38.4468 451.865 37.9989 454.469 37.9989C456.552 37.9989 458.479 38.3114 460.25 38.9364C462.021 39.5614 463.552 40.4364 464.844 41.5614C466.115 42.7072 467.104 44.0927 467.812 45.7177C468.521 47.3218 468.854 49.1239 468.812 51.1239H460.625C460.667 50.2906 460.542 49.4989 460.25 48.7489C459.958 47.9989 459.531 47.3531 458.969 46.8114C458.406 46.2697 457.729 45.8427 456.938 45.5302C456.146 45.1968 455.281 45.0302 454.344 45.0302C452.969 45.0302 451.833 45.3114 450.938 45.8739C450.042 46.4364 449.333 47.1864 448.812 48.1239C448.271 49.0614 447.885 50.1343 447.656 51.3427C447.448 52.551 447.344 53.801 447.344 55.0927V56.0302C447.344 57.3427 447.448 58.6135 447.656 59.8427C447.865 61.051 448.24 62.1135 448.781 63.0302C449.302 63.9677 450.01 64.7177 450.906 65.2802C451.823 65.8427 452.979 66.1239 454.375 66.1239Z" fill="#FEC123"/>
<path d="M503.32 77.4284C501.357 77.4284 499.949 76.8737 499.096 75.7644C498.243 74.6551 497.816 73.0337 497.816 70.9004C497.816 68.9377 498.179 66.3777 498.904 63.2204C499.672 60.0204 500.675 56.4577 501.912 52.5324C503.192 48.5644 504.621 44.4897 506.2 40.3084C507.779 36.0844 509.421 31.9457 511.128 27.8924C512.835 23.7964 514.499 20.0417 516.12 16.6284C516.888 15.1351 517.699 14.1111 518.552 13.5564C519.405 13.0017 520.344 12.7244 521.368 12.7244C522.349 12.7244 523.181 13.0017 523.864 13.5564C524.547 14.0684 524.888 14.9004 524.888 16.0524C524.888 16.3084 524.547 17.2897 523.864 18.9964C523.181 20.6604 522.285 22.8364 521.176 25.5244C520.067 28.1697 518.851 31.1564 517.528 34.4844C516.205 37.7697 514.883 41.2044 513.56 44.7884C512.237 48.3297 511.043 51.8284 509.976 55.2844C508.909 58.7404 508.056 61.9404 507.416 64.8844C508.909 62.8791 510.509 60.6604 512.216 58.2284C513.965 55.7537 515.736 53.3004 517.528 50.8684C519.363 48.3937 521.155 46.1324 522.904 44.0844C524.696 42.0364 526.36 40.3937 527.896 39.1564C529.432 37.9191 530.776 37.3004 531.928 37.3004C534.061 37.3004 535.768 37.8977 537.048 39.0924C538.371 40.2444 539.032 42.2497 539.032 45.1084C539.032 46.4311 538.776 48.0311 538.264 49.9084C537.752 51.7431 537.133 53.6844 536.408 55.7324C535.725 57.7377 535.128 59.6791 534.616 61.5564C534.104 63.4337 533.848 65.0764 533.848 66.4844C533.848 67.2524 534.211 67.6364 534.936 67.6364C537.027 67.6364 539.139 67.1884 541.272 66.2924C543.448 65.3964 545.517 64.2871 547.48 62.9644C549.485 61.5991 551.299 60.2551 552.92 58.9324C554.584 57.5671 555.928 56.4364 556.952 55.5404C557.677 54.8577 558.339 54.4097 558.936 54.1964C559.533 53.9404 560.088 53.8124 560.6 53.8124C562.349 53.8124 563.224 54.6871 563.224 56.4364C563.224 56.7777 563.16 57.2044 563.032 57.7164C562.904 58.1857 562.499 58.7831 561.816 59.5084C561.133 60.2337 560.109 61.2577 558.744 62.5804C557.379 63.9031 555.779 65.3111 553.944 66.8044C552.152 68.2977 550.189 69.7271 548.056 71.0924C545.965 72.4151 543.811 73.5031 541.592 74.3564C539.373 75.2097 537.219 75.6364 535.128 75.6364C531.971 75.6364 529.539 74.7404 527.832 72.9484C526.125 71.1991 525.272 68.8097 525.272 65.7804C525.272 63.6897 525.699 61.0657 526.552 57.9084C527.405 54.7084 528.365 51.4444 529.432 48.1164C527.939 49.5671 526.381 51.2951 524.76 53.3004C523.139 55.2631 521.496 57.3537 519.832 59.5724C518.168 61.7484 516.525 63.9031 514.904 66.0364C513.325 68.1271 511.811 70.0471 510.36 71.7964C508.909 73.5031 507.587 74.8684 506.392 75.8924C505.197 76.9164 504.173 77.4284 503.32 77.4284Z" fill="#FEC123"/>
</svg>
